<?xml version="1.0" encoding="UTF-8"?>
<!-- Generator: Adobe Illustrator 15.1.0, SVG Export Plug-In . SVG Version: 6.00 Build 0)  -->
<!DOCTYPE svg PUBLIC "-//W3C//DTD SVG 1.1//EN" "http://www.w3.org/Graphics/SVG/1.1/DTD/svg11.dtd">
<svg version="1.1" id="Layer_1" xmlns="http://www.w3.org/2000/svg" xmlns:xlink="http://www.w3.org/1999/xlink" x="0px" y="0px" width="79px" height="45px" viewBox="0 0 79 45" enable-background="new 0 0 79 45" xml:space="preserve">
<g>
	<g>
		<path fill="#3A3A39" d="M64.686,21.797h-4.719l-0.512-0.765v0.765h-5.737l-0.764-1.657h-0.638l-0.701,1.657h-3.379    c-0.063,0-0.895,0-1.723-0.383v0.383H17.633l-0.638-1.529h-0.638l-0.701,1.529h-5.482l4.336-9.753h4.336v0.063v-0.063h5.291    l0.829,1.784l0.829-1.784h15.301c0,0,0.51,0,0.955,0.19v-0.19h4.465v0.253c0.318-0.126,0.83-0.253,1.404-0.253h6.887l0.062,0.127    v-0.127h4.781l0.254,0.445v-0.445h4.719v9.753H64.686z M60.352,21.161h3.695v-8.543h-3.443v2.167l-1.273-2.167h-3.825v1.021    l-0.638,0.127l-0.51-1.147h-6.439c-0.893,0-1.529,0.446-1.529,0.446l-0.51,0.382v-0.828h-3.189v0.637l-0.51-0.383    c-0.445-0.318-1.084-0.318-1.148-0.318H26.24l-1.213,2.613l-1.273-2.613h-4.272v0.956l-0.638,0.127l-0.446-1.083h-3.506    l-3.763,8.479h4.08l0.701-1.529h1.466l0.638,1.529h4.845v-0.446l0.574-0.127l0.254,0.574h2.551l0.254-0.51l0.638,0.128v0.382    h12.05v-2.422h0.573c0.064,0,0.256,0,0.384,0.128c0.063,0.062,0.19,0.19,0.19,0.445v1.785h5.676v-0.956l0.513,0.382    c0.764,0.574,1.848,0.574,1.911,0.574h2.933l0.701-1.656h1.467l0.767,1.656h4.718v-2.358L60.352,21.161z"/>
		<path fill="#3A3A39" d="M65.641,32.955h-5.227v-0.127c-0.256,0.062-0.512,0.127-0.893,0.127H41.604v-2.359    c-0.256,0.064-0.508,0.127-0.894,0.127h-1.146v2.229h-5.483l-1.021-1.211l-1.083,1.211h-8.672v-9.813h8.735l1.084,1.211    l1.084-1.211h6.501c0,0,0.382,0,0.83,0.127v-0.127h5.993c0.382,0,0.766,0.062,1.021,0.19v-0.19h7.969v0.127    c0.256-0.064,0.574-0.127,0.894-0.127h5.101v0.19c0.256-0.063,0.574-0.19,0.894-0.19h5.483v6.885    C68.895,31.49,67.363,32.955,65.641,32.955z M61.052,32.316h4.589c1.338,0,2.615-1.146,2.615-2.295v-6.248h-4.847    c-0.509,0-1.083,0.317-1.083,0.317l-0.447,0.257v-0.574h-4.463c-0.574,0-1.02,0.256-1.02,0.256l-0.512,0.318v-0.574h-6.693v0.574    l-0.51-0.257c0,0-0.572-0.317-1.146-0.317h-5.357v0.512l-0.447-0.256c-0.51-0.256-1.021-0.256-1.021-0.256h-6.248l-1.338,1.531    l-1.34-1.531h-7.841v8.543h7.714l1.401-1.594l1.274,1.594h4.591v-2.23h1.784c0.639,0,1.085-0.189,1.085-0.189l0.442-0.256v2.676    h3.445V29.83h0.512c0.511,0,0.638,0.383,0.638,0.574v1.914h12.75c0.637,0,1.021-0.256,1.021-0.256l0.512-0.254v0.51H61.05v-0.002    H61.052z"/>
	</g>
	<g>
		<polygon fill="#3A3A39" points="50.085,24.793 55.248,24.793 55.248,26.197 51.68,26.197 51.68,27.408 55.186,27.408     55.186,28.619 51.68,28.619 51.68,29.959 55.248,29.959 55.248,31.297 50.085,31.297   "/>
		<path fill="#3A3A39" d="M65.322,27.344c1.978,0.129,2.104,1.084,2.104,2.104c0,1.213-1.02,1.85-2.042,1.85H62.07v-1.399h2.613    c0.447,0,1.086,0,1.086-0.64c0-0.317-0.127-0.51-0.574-0.51c-0.192,0-0.957-0.063-1.086-0.063    c-1.783-0.064-2.166-0.957-2.166-1.978c0-1.211,0.828-1.914,1.914-1.914h3.312v1.404h-2.423c-0.574,0-1.146-0.064-1.146,0.573    c0,0.384,0.317,0.447,0.7,0.511C64.365,27.279,65.195,27.344,65.322,27.344z"/>
		<path fill="#3A3A39" d="M59.329,27.344c1.976,0.129,2.104,1.084,2.104,2.104c0,1.213-1.021,1.85-2.039,1.85h-3.316v-1.399h2.613    c0.445,0,1.082,0,1.082-0.64c0-0.317-0.127-0.51-0.571-0.51c-0.192,0-0.956-0.063-1.085-0.063    c-1.783-0.064-2.168-0.957-2.168-1.978c0-1.211,0.826-1.914,1.912-1.914h3.315v1.404h-2.423c-0.574,0-1.146-0.064-1.146,0.573    c0,0.384,0.319,0.447,0.701,0.511C58.373,27.279,59.202,27.344,59.329,27.344z"/>
		<path fill="#3A3A39" d="M40.457,24.793h-5.61l-1.85,2.041l-1.783-2.041h-6.248v6.504h6.056l1.913-2.168l1.849,2.168h3.062v-2.23    h2.166c0.828,0,2.358,0,2.358-2.295C42.369,25.176,41.221,24.793,40.457,24.793z M30.255,29.959H26.56v-1.275h3.506v-1.211H26.56    V26.26h3.888l1.53,1.785L30.255,29.959z M36.312,30.66l-2.295-2.678l2.295-2.551V30.66z M39.882,27.791h-1.977v-1.529h1.977    c0.636,0,0.892,0.445,0.892,0.764C40.775,27.408,40.584,27.791,39.882,27.791z"/>
		<path fill="#3A3A39" d="M48.173,28.363c0.894-0.445,1.083-1.021,1.083-1.783c0-1.404-1.146-1.723-1.913-1.723h-4.146v6.504h1.596    v-2.295h2.104c0.574,0,0.766,0.574,0.766,1.082l0.064,1.213h1.528l-0.063-1.402C49.191,28.939,48.873,28.428,48.173,28.363z     M46.771,27.664h-1.978v-1.467h1.978c0.637,0,0.891,0.445,0.891,0.764C47.662,27.408,47.408,27.664,46.771,27.664z"/>
	</g>
	<g>
		<rect x="43.516" y="13.573" fill="#3A3A39" width="1.596" height="6.503"/>
		<polygon fill="#3A3A39" points="30.511,13.638 35.675,13.638 35.675,14.975 32.104,14.975 32.104,16.251 35.61,16.251     35.61,17.462 32.104,17.462 32.104,18.739 35.675,18.739 35.675,20.076 30.511,20.076   "/>
		<path fill="#3A3A39" d="M41.604,17.145c0.894-0.448,1.082-1.021,1.082-1.785c0-1.402-1.146-1.722-1.912-1.722H36.63v6.502h1.594    v-2.295h2.104c0.574,0,0.764,0.573,0.764,1.083l0.066,1.212h1.527l-0.065-1.341C42.623,17.717,42.369,17.208,41.604,17.145z     M40.201,16.442h-1.976v-1.467h2.039c0.639,0,0.895,0.447,0.895,0.766C41.096,16.188,40.902,16.442,40.201,16.442z"/>
		<path fill="#3A3A39" d="M26.812,13.638l-1.913,4.335l-1.976-4.335h-2.486v6.249l-2.805-6.249h-2.104L12.66,20.14h1.657    l0.638-1.466h3.188l0.637,1.466h3.188v-4.845l2.104,4.845h1.529l2.168-4.718v4.718h1.594v-6.502H26.812z M15.594,17.271    l0.956-2.296l1.02,2.296H15.594z"/>
		<path fill="#3A3A39" d="M61.561,13.573v4.463l-2.677-4.463h-2.36v6.119l-2.739-6.119h-2.039l-2.229,5.037c0,0-0.957,0-1.021,0    c-0.384-0.063-0.959-0.319-1.022-1.468v-0.445c0-1.53,0.827-1.657,1.914-1.657h0.957v-1.403h-2.105    c-0.701,0-2.293,0.574-2.358,3.188c-0.063,1.786,0.767,3.251,2.487,3.251h2.102l0.639-1.467h3.188l0.639,1.467h3.188v-4.781    l2.869,4.781h2.168v-6.502L61.561,13.573L61.561,13.573z M51.807,17.271l0.957-2.296l1.021,2.296H51.807z"/>
	</g>
</g>
<path fill="#3A3A39" d="M74.24,45H4.826c-2.644,0-4.793-2.15-4.793-4.795V4.794C0.033,2.149,2.182,0,4.826,0h69.412  c2.646,0,4.796,2.149,4.796,4.794v35.413C79.033,42.85,76.885,45,74.24,45z M4.826,3C3.853,3,3.033,3.82,3.033,4.794v35.413  C3.033,41.18,3.853,42,4.826,42h69.412c0.974,0,1.796-0.82,1.796-1.793V4.794C76.033,3.82,75.211,3,74.238,3H4.826z"/>
</svg>