<svg xmlns="http://www.w3.org/2000/svg" width="27" height="20">
    <path fill="#373737" fill-rule="evenodd" d="M24.975 8.747h-.259V1.318c0-.722-.594-1.311-1.322-1.311H3.606c-.728 0-1.322.589-1.322 1.311v7.429h-.259c-.795 0-1.441.641-1.441 1.435v9.258c0 .302.248.553.553.553h2.629c.305 0 .553-.246.553-.553v-1.481c0-.056.047-.102.104-.102h18.154c.057 0 .104.046.104.102v1.481c0 .302.248.553.553.553h2.629c.305 0 .553-.246.553-.553v-9.258c0-.789-.646-1.435-1.441-1.435zM3.394 1.318c0-.113.099-.21.212-.21h19.788c.113 0 .212.097.212.21v7.429h-1.147V4.9c0-.549-.45-1-1.008-1h-5.988c-.553 0-1.007.446-1.007 1v3.847h-1.917V4.9c0-.549-.449-1-1.007-1H5.549c-.553 0-1.008.446-1.008 1v3.847H3.394V1.318zm17.954 7.429h-5.781V5.002h5.776v3.745h.005zm-9.915 0H5.652V5.002h5.781v3.745zM2.025 9.849h22.939c.181 0 .331.154.331.333v4.15H1.684v-4.15c.011-.179.16-.333.341-.333zm21.761 9.038v-.928c0-.661-.542-1.204-1.214-1.204H4.423c-.667 0-1.215.538-1.215 1.204v.928H1.695v-3.454h23.61v3.454h-1.519z"/>
</svg>
