<svg xmlns="http://www.w3.org/2000/svg" width="22" height="20">
    <path fill="#373737" fill-rule="evenodd" d="M19.018 20.01c-.273 0-.496-.223-.496-.497v-5.775H3.478v5.775c0 .274-.222.497-.496.497H.657c-.273 0-.495-.223-.495-.497V.491c0-.274.222-.497.495-.497h20.686c.273 0 .496.223.496.497v19.022c0 .274-.223.497-.496.497h-2.325zm1.829-.995V.989H1.153v18.026h1.334V13.24c0-.027.006-.05.012-.069-.006-.042-.012-.065-.012-.092v-8.08c0-.274.222-.497.495-.497h16.036c.273 0 .495.223.495.497v8.08c0 .028-.006.05-.012.071.006.038.012.063.012.09v5.775h1.334zm-2.325-6.434V5.497h-3.074v7.084h3.074zm-4.066 0V5.497h-2.96v7.084h2.96zm-3.952 0V5.497h-2.96v7.084h2.96zm-3.951 0V5.497H3.478v7.084h3.075z"/>
</svg>
