<svg xmlns="http://www.w3.org/2000/svg" width="60" height="64">
    <path fill="#FFF" fill-rule="evenodd" d="M58.117 58.947l-.001 4.957-1.723.001v-4.958c-.612-.002-1.224 0-1.835-.001a349.45 349.45 0 010-1.448H60v1.448l-1.883.001zm-6.397 3.788h-2c-.133.389-.259.78-.391 1.17h-1.556c.742-2.136 1.481-4.273 2.226-6.408.537.002 1.074-.001 1.612.002.74 2.136 1.483 4.27 2.223 6.406h-1.723c-.132-.39-.258-.781-.391-1.17zm-.987-2.968a.276.276 0 00-.068.117c-.184.542-.371 1.083-.556 1.625h1.222c-.199-.581-.396-1.162-.598-1.742zm-6.409 1.575c-.704 0-1.408-.001-2.112.001-.002.854 0 1.707-.002 2.561l-1.723.001c.001-2.136-.002-4.272.002-6.408l1.722.001c.001.798-.001 1.597.001 2.395h2.112c.002-.798-.002-1.597.002-2.395h1.666v6.407h-1.666c-.004-.854 0-1.708-.002-2.563zm-7.211-48.595c-1.422 1.046-3.122 1.664-4.851 1.961.316.222.603.518.715.897a1.33 1.33 0 01-.205 1.173c-.362.507-.939.805-1.516.997v12.201c1.521 1.92 3.038 3.842 4.559 5.762V20.616c.964-.003 1.928-.002 2.893-.001l-.001 20.112-2.891.001c-1.558-2.005-3.113-4.012-4.672-6.016V49.03c-.003.227.018.459-.039.682-.136.503-.585.913-1.104.98-.687.091-1.374-.482-1.41-1.175-.014-.423 0-.845-.006-1.268h-4.337v-2.897c1.446-.002 2.892.001 4.338-.001V31.313c-1.516-1.943-3.036-3.884-4.553-5.826a.93.93 0 00-.114-.104c-.012 5.114-.001 10.229-.005 15.344h-2.891l-.001-20.112c.965-.001 1.93-.002 2.894.001 1.555 2.006 3.113 4.01 4.669 6.014v-8.855c-.578-.192-1.155-.49-1.516-.997a1.329 1.329 0 01-.195-1.205c.116-.364.396-.642.696-.863-1.357-.241-2.691-.667-3.894-1.349-1.217-.69-2.323-1.653-2.978-2.908-.551-1.041-.718-2.285-.419-3.427.308-1.214 1.084-2.262 2.027-3.061 1.327-1.124 2.973-1.817 4.661-2.182.036-.428.283-.809.614-1.07.6-.479 1.377-.668 2.129-.713h.413c.705.041 1.424.207 2.01.617.39.267.702.682.741 1.165.71.165 1.41.38 2.082.662 1.364.571 2.652 1.404 3.582 2.571.586.736 1.007 1.618 1.129 2.557a4.823 4.823 0 01-.506 2.846c-.477.932-1.212 1.711-2.048 2.329zm-.538-5.277c-.231-.628-.729-1.125-1.296-1.461-.789-.466-1.727-.658-2.637-.59a4.265 4.265 0 00-2.721 1.32 3.901 3.901 0 00-1.778-1.141c-.884-.276-1.85-.248-2.733.022-.747.235-1.46.673-1.897 1.338-.353.528-.479 1.213-.29 1.825.199.66.697 1.191 1.273 1.548.801.494 1.765.7 2.699.631a4.271 4.271 0 002.725-1.321c.668.769 1.654 1.226 2.661 1.316a4.724 4.724 0 002.429-.426c.591-.284 1.128-.725 1.438-1.313.283-.53.341-1.182.127-1.748zM14.182 57.498h4.393v.557h-3.782l.001 2.284h3.558c0 .167 0 .334.003.502-1.188 0-2.375-.001-3.562 0v2.562l3.837.001v.501h-4.448v-6.407zm-3.06 3.287H7.341v3.12H6.73v-6.407h.611v2.785h3.781c.002-.928 0-1.857.001-2.785h.611v6.407h-.611l-.001-3.12zm-8.287 3.12l-.61-.001-.001-5.849H0v-.557h5.061v.556c-.742.002-1.483-.001-2.224.001-.002 1.95 0 3.899-.002 5.85zm21.902-3.333c.134.187.223.41.391.572.023-1.215.002-2.43.01-3.646.519 0 1.038-.001 1.557.001-.001 2.135.001 4.27 0 6.406h-1.612c-.668-.992-1.332-1.986-1.999-2.979-.147-.205-.267-.431-.437-.619-.029 1.198-.002 2.399-.013 3.598l-1.556-.001c-.001-2.135-.001-4.271 0-6.406.575 0 1.15-.001 1.725.001l1.934 3.073zm6.073 3.277h-1.723v-6.351h1.723v6.351zm4.693-1.195c.349.048.734.041 1.042-.148.193-.115.28-.384.165-.582-.11-.186-.319-.278-.511-.354-.582-.215-1.203-.303-1.776-.542-.407-.166-.806-.418-1.024-.812-.388-.742-.203-1.76.458-2.287.375-.307.853-.46 1.329-.517.704-.078 1.44.014 2.076.339.409.207.765.508 1.057.86-.387.316-.777.629-1.164.946-.394-.487-1.013-.82-1.648-.773-.186.016-.398.055-.516.216-.133.198-.057.488.139.616.255.175.566.236.859.319.582.133 1.185.255 1.699.576.335.206.611.523.722.905.155.54.072 1.155-.257 1.615a2.01 2.01 0 01-.888.68c-.482.2-1.01.239-1.524.289h-.221c-.275-.057-.556-.081-.828-.151-.755-.184-1.402-.69-1.825-1.335.424-.262.851-.52 1.276-.779.306.471.797.836 1.36.919z"/>
</svg>
