<?xml version="1.0" encoding="UTF-8"?>
<!-- Generator: Adobe Illustrator 15.1.0, SVG Export Plug-In . SVG Version: 6.00 Build 0)  -->
<!DOCTYPE svg PUBLIC "-//W3C//DTD SVG 1.1//EN" "http://www.w3.org/Graphics/SVG/1.1/DTD/svg11.dtd">
<svg version="1.1" id="Layer_1" xmlns="http://www.w3.org/2000/svg" xmlns:xlink="http://www.w3.org/1999/xlink" x="0px" y="0px" width="79px" height="45px" viewBox="0 0 79 45" enable-background="new 0 0 79 45" xml:space="preserve">
<path fill="#3A3A39" d="M74.207,45H4.793C2.148,45,0,42.85,0,40.205V4.794C0,2.149,2.148,0,4.793,0h69.412  C76.852,0,79,2.149,79,4.794v35.413C79,42.85,76.852,45,74.207,45z M4.793,3C3.819,3,3,3.82,3,4.794v35.413  C3,41.18,3.819,42,4.793,42h69.412C75.179,42,76,41.18,76,40.207V4.794C76,3.82,75.178,3,74.205,3H4.793z"/>
<g>
	<polygon fill="none" stroke="#3A3A39" stroke-width="2" points="50.305,37.609 51.069,37.609 51.836,37.547 52.601,37.419    53.366,37.291 54.066,37.163 54.832,36.909 55.534,36.717 56.172,36.463 56.872,36.143 57.51,35.825 58.147,35.441 58.785,35.061    59.359,34.613 59.932,34.167 60.441,33.723 61.016,33.211 61.527,32.701 61.973,32.128 62.418,31.555 62.865,30.979 63.247,30.342    63.566,29.704 63.948,29.066 64.203,28.43 64.522,27.729 64.715,27.025 64.968,26.324 65.097,25.561 65.223,24.794 65.352,24.094    65.415,23.328 65.415,22.501 65.415,21.734 65.352,20.969 65.223,20.268 65.097,19.504 64.968,18.802 64.715,18.037 64.522,17.335    64.203,16.697 63.948,15.996 63.566,15.358 63.247,14.722 62.865,14.147 62.418,13.511 61.973,12.999 61.527,12.426 61.016,11.916    60.441,11.406 59.932,10.961 59.359,10.515 58.785,10.066 58.147,9.686 57.51,9.303 56.872,8.984 56.172,8.665 55.534,8.409    54.832,8.155 54.066,7.964 53.366,7.772 52.601,7.645 51.836,7.582 51.069,7.517 50.305,7.517 49.541,7.517 48.774,7.582    48.011,7.645 47.31,7.772 46.543,7.964 45.843,8.155 45.142,8.409 44.439,8.665 43.803,8.984 43.166,9.303 42.526,9.686    41.89,10.066 41.316,10.515 40.742,10.961 40.232,11.406 39.66,11.916 39.213,12.426 38.702,12.999 38.256,13.511 37.874,14.147    37.49,14.722 37.107,15.358 36.79,15.996 36.47,16.697 36.215,17.335 35.961,18.037 35.77,18.802 35.578,19.504 35.45,20.268    35.387,20.969 35.324,21.734 35.261,22.501 35.324,23.328 35.387,24.094 35.45,24.794 35.578,25.561 35.77,26.324 35.961,27.025    36.215,27.729 36.47,28.43 36.79,29.066 37.107,29.704 37.49,30.342 37.874,30.979 38.256,31.555 38.702,32.128 39.213,32.701    39.66,33.211 40.232,33.723 40.742,34.167 41.316,34.613 41.89,35.061 42.526,35.441 43.166,35.825 43.803,36.143 44.439,36.463    45.142,36.717 45.843,36.909 46.543,37.163 47.31,37.291 48.011,37.419 48.774,37.547 49.541,37.609  "/>
	<path fill="#3A3A39" d="M39.34,33.593l-0.767-0.892h3.188l0,0l0.444-0.574l0.319-0.447h-4.781l-0.574-0.893h5.93l0.383-0.637   l0.189-0.383h-7.075l-0.382-0.893h7.904l0.064-0.128l0.254-0.701l0.065-0.19H35.83l-0.254-0.894h9.245l0.125-0.444l0.128-0.637   h-2.869l0.19-0.895h2.806v-0.063l0.127-0.765v-0.191h-2.807l0.192-0.893h2.677V22.5v-0.829l-0.063-0.828l-0.064-0.51h-10.2   l0.192-0.893h9.881l-0.065-0.255l-0.188-0.766v-0.063h-9.438l0.256-0.893h8.925l-0.188-0.574l-0.191-0.51h-8.161l0.385-0.893h7.396   v-0.063l-0.383-0.701l-0.191-0.063h-6.312l0.573-0.893h5.228l-0.127-0.127l-0.445-0.638l-0.19-0.255h-3.763l0.7-0.892h2.296l0,0   l-0.51-0.574l-0.574-0.51l-0.573-0.51l-0.574-0.447l-0.638-0.446l-0.639-0.381l-0.637-0.383l-0.701-0.319l-0.701-0.319   l-0.699-0.256l-0.767-0.254l-0.763-0.194l-0.764-0.192l-0.768-0.127l-0.766-0.128L30.35,6.752h-0.83h-0.827l-0.83,0.062   l-0.765,0.128l-0.766,0.127l-0.765,0.192l-0.767,0.19l-0.765,0.255l-0.701,0.255l-0.7,0.319l-0.7,0.319l-0.638,0.383l-0.639,0.382   L20.021,9.81l-0.572,0.446l-0.576,0.51l-0.571,0.511l-0.638,0.573l-0.511,0.573l-0.445,0.573l-0.447,0.638l-0.383,0.638   l-0.382,0.638l-0.317,0.701l-0.385,0.7l-0.255,0.701l-0.255,0.766l-0.189,0.766l-0.191,0.765l-0.129,0.765l-0.127,0.767   l-0.062,0.827v0.829v0.829l0.062,0.829l0.127,0.766l0.129,0.767l0.191,0.766l0.189,0.765l0.255,0.767l0.255,0.701l0.32,0.7   l0.318,0.7l0.382,0.639l0.383,0.637L16.643,32l0.445,0.574l0.511,0.574l0.51,0.574l0.574,0.51l0.573,0.512l0.573,0.445l0.64,0.447   l0.638,0.381l0.636,0.381l0.701,0.319l0.7,0.32l0.7,0.255l0.767,0.256l0.766,0.189l0.766,0.191l0.767,0.127l0.764,0.127   l0.828,0.062h0.83h0.828l0.829-0.062l0.765-0.127l0.766-0.127l0.767-0.191l0.765-0.189l0.767-0.256l0.7-0.255l0.701-0.32l0.7-0.319   l0.638-0.381l0.637-0.381l0.638-0.447l0.573-0.445l0.574-0.512l0.574-0.51l0.255-0.256h-1.467L39.34,33.593L39.34,33.593z    M34.812,23.967l-0.062-0.893h1.148v0.893H34.812z"/>
	<polygon fill="#FFFFFF" points="32.198,22.054 32.135,22.054 32.07,22.054 32.008,21.988 31.944,21.988 31.881,21.988    31.754,21.988 31.689,21.988 31.625,21.988 31.562,21.926 31.498,21.926 31.37,21.926 31.242,21.926 31.179,21.926 31.051,21.926    30.925,21.926 30.733,21.988 30.605,21.988 30.541,21.988 30.414,22.054 30.351,22.054 30.287,22.117 30.222,22.117 30.158,22.181    30.095,22.244 30.095,22.309 30.031,22.372 30.031,22.436 30.031,22.501 30.031,22.564 30.095,22.627 30.095,22.69 30.158,22.755    30.287,22.884 30.414,22.945 30.541,23.011 30.733,23.074 30.925,23.137 31.051,23.201 31.242,23.266 31.435,23.328 31.562,23.393    31.754,23.521 31.881,23.648 32.008,23.84 32.07,24.03 32.135,24.285 32.135,24.541 32.135,24.923 32.07,25.18 32.008,25.368    31.944,25.561 31.815,25.752 31.689,25.941 31.562,26.07 31.435,26.198 31.242,26.262 31.051,26.324 30.925,26.453 30.733,26.453    30.541,26.518 30.351,26.58 30.158,26.58 29.969,26.58 29.841,26.58 29.585,26.58 29.395,26.58 29.202,26.58 29.012,26.58    28.82,26.58 28.692,26.58 28.564,26.518 28.438,26.518 28.312,26.518 28.246,26.518 28.119,26.453 28.056,26.453 27.928,26.453    27.863,26.391 27.799,26.391 27.672,26.324 27.928,25.18 27.991,25.18 28.056,25.18 28.119,25.18 28.183,25.242 28.312,25.242    28.438,25.242 28.501,25.305 28.629,25.305 28.82,25.305 28.947,25.368 29.075,25.368 29.202,25.368 29.395,25.368 29.521,25.368    29.713,25.368 29.841,25.368 30.031,25.368 30.158,25.305 30.222,25.242 30.287,25.18 30.351,25.114 30.414,24.986 30.414,24.923    30.414,24.859 30.479,24.668 30.414,24.541 30.287,24.477 30.158,24.35 30.031,24.285 29.841,24.223 29.648,24.094 29.395,24.03    29.202,23.967 29.012,23.84 28.82,23.711 28.629,23.521 28.501,23.328 28.375,23.074 28.375,22.755 28.375,22.436 28.375,22.244    28.438,22.054 28.501,21.862 28.564,21.671 28.629,21.543 28.757,21.352 28.82,21.224 28.947,21.097 29.139,21.033 29.331,20.906    29.521,20.842 29.713,20.777 29.969,20.777 30.222,20.714 30.479,20.714 30.797,20.714 31.051,20.714 31.179,20.714 31.37,20.714    31.498,20.714 31.625,20.714 31.754,20.714 31.881,20.714 32.008,20.714 32.07,20.777 32.135,20.777 32.198,20.777 32.263,20.777    32.326,20.777 32.391,20.777 32.455,20.842 32.455,20.842  "/>
	<polygon fill="#FFFFFF" points="33.475,19.504 34.94,19.504 34.748,20.777 35.642,20.777 35.45,21.988 34.494,21.988    33.984,24.986 33.984,25.114 33.984,25.18 34.047,25.242 34.112,25.305 34.24,25.368 34.367,25.368 34.431,25.434 34.558,25.434    34.687,25.434 34.812,25.368 34.94,25.368 35.004,25.368 35.068,25.368 35.132,25.305 35.132,25.305 35.132,25.305 34.94,26.324    34.94,26.324 34.876,26.324 34.876,26.391 34.812,26.391 34.748,26.391 34.748,26.453 34.687,26.453 34.621,26.453 34.558,26.453    34.558,26.518 34.494,26.518 34.431,26.518 34.305,26.518 34.24,26.518 34.176,26.518 34.047,26.58 33.664,26.58 33.475,26.518    33.283,26.518 33.092,26.518 32.963,26.453 32.838,26.391 32.711,26.324 32.645,26.262 32.582,26.198 32.519,26.135 32.455,26.07    32.455,25.941 32.455,25.879 32.391,25.752 32.391,25.624 32.455,25.497 32.455,25.368  "/>
	<polygon fill="#FFFFFF" points="36.854,24.03 36.79,24.158 36.79,24.223 36.854,24.35 36.854,24.412 36.854,24.541 36.918,24.604    36.98,24.73 37.044,24.794 37.107,24.923 37.236,24.986 37.3,25.05 37.363,25.114 37.49,25.18 37.618,25.242 37.683,25.305    37.811,25.305 37.938,25.305 38.063,25.368 38.191,25.368 38.384,25.368 38.512,25.368 38.639,25.368 38.765,25.368 38.957,25.368    39.084,25.368 39.213,25.305 39.404,25.305 39.531,25.242 39.66,25.18 39.85,25.114 39.977,25.05 40.105,24.923 39.913,26.262    39.85,26.324 39.721,26.324 39.66,26.391 39.594,26.391 39.468,26.453 39.404,26.453 39.34,26.453 39.213,26.518 39.147,26.518    39.02,26.518 38.894,26.518 38.765,26.518 38.639,26.58 38.512,26.58 38.319,26.58 38.191,26.58 37.874,26.58 37.618,26.518    37.363,26.518 37.107,26.453 36.854,26.324 36.598,26.262 36.344,26.135 36.088,25.941 35.896,25.752 35.706,25.561 35.578,25.305    35.45,24.986 35.324,24.668 35.261,24.35 35.261,23.967 35.261,23.521 35.324,23.328 35.324,23.137 35.387,22.945 35.45,22.69    35.514,22.436 35.642,22.244 35.77,21.988 35.896,21.734 36.088,21.543 36.28,21.352 36.534,21.161 36.79,20.969 37.107,20.842    37.426,20.777 37.811,20.714 38.256,20.714 38.512,20.714 38.702,20.714 38.894,20.777 39.147,20.777 39.34,20.906 39.594,20.969    39.786,21.097 39.913,21.288 40.105,21.415 40.232,21.671 40.36,21.926 40.424,22.181 40.487,22.501 40.487,22.884 40.424,23.266    40.36,23.711 40.297,24.094 36.406,24.094 36.662,23.011 39.02,23.011 39.02,22.884 39.02,22.755 39.02,22.627 38.957,22.501    38.957,22.436 38.894,22.309 38.83,22.244 38.765,22.181 38.702,22.117 38.639,22.054 38.574,21.988 38.512,21.988 38.384,21.926    38.319,21.926 38.256,21.862 38.129,21.862 38.063,21.862 37.938,21.926 37.874,21.926 37.745,21.926 37.683,21.988 37.555,22.054    37.49,22.117 37.426,22.181 37.363,22.244 37.3,22.309 37.236,22.436 37.172,22.501 37.172,22.627 37.107,22.69 37.044,22.818    37.044,22.945  "/>
	<polygon fill="#FFFFFF" points="49.668,21.097 49.604,21.097 49.541,21.033 49.412,21.033 49.349,20.969 49.285,20.969    49.223,20.906 49.094,20.906 49.03,20.842 48.903,20.842 48.774,20.777 48.711,20.777 48.585,20.777 48.456,20.777 48.329,20.714    48.201,20.714 48.074,20.714 47.947,20.714 47.754,20.777 47.629,20.777 47.5,20.777 47.31,20.842 47.181,20.906 47.055,20.969    46.862,21.097 46.735,21.161 46.609,21.352 46.48,21.48 46.353,21.671 46.225,21.926 46.098,22.181 46.033,22.501 45.906,22.818    45.906,23.011 45.843,23.201 45.843,23.393 45.843,23.585 45.906,23.773 45.906,23.967 45.969,24.094 46.033,24.285 46.098,24.412    46.225,24.541 46.289,24.668 46.417,24.794 46.609,24.923 46.735,24.986 46.926,25.05 47.117,25.114 47.181,25.114 47.31,25.114    47.373,25.114 47.5,25.18 47.629,25.18 47.754,25.18 47.883,25.18 48.011,25.18 48.137,25.114 48.266,25.114 48.393,25.05    48.585,25.05 48.711,24.986 48.838,24.923 48.903,24.794 49.03,24.73 48.774,26.135 48.774,26.198 48.711,26.198 48.711,26.262    48.648,26.262 48.585,26.324 48.52,26.324 48.393,26.391 48.329,26.453 48.201,26.453 48.074,26.518 47.883,26.518 47.691,26.518    47.5,26.518 47.245,26.58 46.99,26.518 46.67,26.518 46.417,26.518 46.161,26.453 45.906,26.391 45.716,26.262 45.461,26.135    45.205,25.941 45.013,25.752 44.823,25.561 44.631,25.305 44.504,25.05 44.375,24.73 44.249,24.412 44.186,24.094 44.186,23.711    44.186,23.266 44.249,22.818 44.312,22.627 44.312,22.372 44.375,22.181 44.439,21.988 44.504,21.798 44.567,21.607 44.631,21.415    44.694,21.224 44.823,21.097 44.887,20.906 44.949,20.777 45.076,20.651 45.142,20.523 45.269,20.395 45.396,20.268 45.461,20.141    45.588,20.014 45.716,19.948 45.843,19.821 45.969,19.758 46.161,19.694 46.289,19.631 46.417,19.567 46.609,19.504 46.735,19.438    46.926,19.375 47.117,19.375 47.31,19.312 47.5,19.312 47.691,19.248 47.883,19.248 48.074,19.248 48.201,19.248 48.393,19.248    48.585,19.312 48.711,19.312 48.903,19.312 49.03,19.375 49.159,19.375 49.285,19.438 49.412,19.438 49.541,19.504 49.604,19.504    49.73,19.567 49.795,19.567 49.859,19.567 49.922,19.631 49.922,19.631  "/>
	<g>
		<g>
			<polyline fill="#3A3A39" points="49.668,21.097 49.668,21.097 49.604,21.097 49.541,21.033 49.412,21.033 49.349,20.969      49.285,20.969 49.223,20.906 49.094,20.906 49.03,20.842 48.903,20.842 48.774,20.777 48.711,20.777 48.585,20.777      48.456,20.777 48.329,20.714 48.201,20.714 48.074,20.714 48.074,20.714 47.947,20.714 47.754,20.777 47.629,20.777 47.5,20.777      47.31,20.842 47.181,20.906 47.055,20.969 46.862,21.097 46.735,21.161 46.609,21.352 46.48,21.48 46.353,21.671 46.225,21.926      46.098,22.181 46.033,22.501 45.906,22.818 45.906,22.818 45.906,23.011 45.843,23.201 45.843,23.393 45.843,23.585      45.906,23.773 45.906,23.967 45.969,24.094 46.033,24.285 46.098,24.412 46.225,24.541 46.289,24.668 46.417,24.794      46.609,24.923 46.735,24.986 46.926,25.05 47.117,25.114 47.117,25.114 47.181,25.114 47.31,25.114 47.373,25.114 47.5,25.18      47.629,25.18 47.754,25.18 47.883,25.18 48.011,25.18 48.137,25.114 48.266,25.114 48.393,25.05 48.585,25.05 48.711,24.986      48.838,24.923 48.903,24.794 49.03,24.73 48.774,26.135 48.774,26.135 48.774,26.198 48.711,26.198 48.711,26.262 48.648,26.262      48.585,26.324 48.52,26.324 48.393,26.391 48.329,26.453 48.201,26.453 48.074,26.518 47.883,26.518 47.691,26.518 47.5,26.518      47.245,26.58 46.99,26.518 46.67,26.518 46.67,26.518 46.417,26.518 46.161,26.453 45.906,26.391 45.716,26.262 45.461,26.135      45.205,25.941 45.013,25.752 44.823,25.561 44.631,25.305 44.504,25.05 44.375,24.73 44.249,24.412 44.186,24.094 44.186,23.711      44.186,23.266 44.249,22.818 44.249,22.818 44.312,22.627 44.312,22.372 44.375,22.181 44.439,21.988 44.504,21.798      44.567,21.607 44.631,21.415 44.694,21.224 44.823,21.097 44.887,20.906 44.949,20.777 45.076,20.651 45.142,20.523      45.269,20.395 45.396,20.268 45.461,20.141 45.588,20.014 45.716,19.948 45.843,19.821 45.969,19.758 46.161,19.694      46.289,19.631 46.417,19.567 46.609,19.504 46.735,19.438 46.926,19.375 47.117,19.375 47.31,19.312 47.5,19.312 47.691,19.248      47.883,19.248 48.074,19.248 48.074,19.248 48.201,19.248 48.393,19.248 48.585,19.312 48.711,19.312 48.903,19.312      49.03,19.375 49.159,19.375 49.285,19.438 49.412,19.438 49.541,19.504 49.604,19.504 49.73,19.567 49.795,19.567 49.859,19.567      49.922,19.631 49.922,19.631 49.668,21.097    "/>
		</g>
	</g>
	<g>
		<g>
			<polyline fill="none" stroke="#FFFFFF" stroke-width="0.215" points="62.865,26.58 61.398,26.58 61.527,25.941 61.527,25.879      61.527,25.879 61.398,26.006 61.335,26.135 61.271,26.198 61.144,26.262 61.079,26.324 60.953,26.391 60.889,26.453      60.761,26.518 60.634,26.518 60.568,26.58 60.441,26.58 60.315,26.58 60.251,26.645 60.123,26.645 59.996,26.645 59.932,26.645      59.932,26.645 59.614,26.645 59.359,26.58 59.167,26.453 58.914,26.324 58.722,26.198 58.593,26.006 58.402,25.816      58.273,25.561 58.147,25.305 58.084,25.114 58.019,24.794 57.955,24.541 57.955,24.285 57.955,23.967 58.019,23.711      58.084,23.457 58.084,23.457 58.147,23.137 58.211,22.818 58.338,22.564 58.466,22.309 58.593,22.054 58.785,21.862      58.975,21.671 59.104,21.48 59.295,21.288 59.485,21.161 59.741,21.033 59.932,20.969 60.123,20.906 60.379,20.842      60.568,20.777 60.761,20.777 60.761,20.777 60.953,20.777 61.079,20.842 61.208,20.842 61.335,20.906 61.463,20.906      61.59,20.969 61.717,21.033 61.781,21.097 61.909,21.161 61.973,21.224 62.035,21.288 62.1,21.352 62.164,21.415 62.228,21.48      62.228,21.543 62.291,21.607 62.291,21.607 62.672,19.504 64.141,19.504 62.865,26.58    "/>
		</g>
	</g>
	<path fill="#3A3A39" d="M62.672,19.504l-0.382,2.104l-0.062-0.064l-0.063-0.062v-0.064L62.1,21.355l-0.064-0.063l-0.063-0.063   l-0.063-0.063l-0.126-0.064l-0.128-0.062l-0.125-0.064L61.4,20.913l-0.127-0.063l-0.127-0.063h-0.126h-0.127h-0.129h-0.189   l-0.19,0.063l-0.19,0.063l-0.191,0.063l-0.19,0.064l-0.191,0.127l-0.189,0.127l-0.19,0.127l-0.19,0.191l-0.192,0.191l-0.255,0.255   l-0.127,0.255l-0.127,0.256l-0.126,0.254l-0.127,0.317l-0.065,0.32l-0.062,0.254v0.256v0.256v0.254l0.062,0.254l0.065,0.257   l0.062,0.256l0.127,0.255l0.129,0.256l0.125,0.189l0.191,0.191l0.19,0.127l0.19,0.127l0.255,0.064l0.256,0.062h0.256h0.126h0.127   h0.126h0.129h0.128h0.127h0.126l0.127-0.062l0.126-0.064l0.128-0.064l0.128-0.062l0.125-0.064l0.128-0.062l0.063-0.063l0.064-0.128   l0.063-0.127v0.064l-0.128,0.574h1.469l1.209-7.015h-1.595v0.06H62.672z M61.909,23.457v0.128v0.126v0.127l-0.127,0.192v0.126   l-0.064,0.127l-0.063,0.127l-0.062,0.129l-0.062,0.125l-0.066,0.128l-0.063,0.126l-0.125,0.062l-0.128,0.063l-0.128,0.065   l-0.125,0.063l-0.128,0.063H60.64h-0.127h-0.257l-0.19-0.127l-0.127-0.19l-0.127-0.192l-0.064-0.254l-0.062-0.255v-0.255v-0.256   l0.062-0.127l0.064-0.127l0.062-0.128l0.064-0.127l0.063-0.128l0.063-0.127l0.062-0.127l0.065-0.128l0.062-0.126l0.065-0.063   l0.125-0.065l0.128-0.063l0.127-0.063l0.128-0.063h0.127h0.126h0.128h0.126l0.127,0.063l0.065,0.063l0.063,0.063l0.062,0.065   l0.062,0.126l0.065,0.128l0.064,0.127l0.063,0.128v0.127v0.127v0.127v0.066h-0.001V23.457z"/>
	<polygon fill="#FFFFFF" points="16.133,26.58 14.666,26.58 15.879,19.504 18.429,19.504 18.684,23.711 20.406,19.504    23.082,19.504 21.808,26.58 20.406,26.58 21.297,21.288 21.233,21.288 19.065,26.58 17.408,26.58 17.408,26.324 17.344,25.752    17.28,24.923 17.28,23.967 17.216,23.011 17.152,22.181 17.09,21.543 17.09,21.288 17.09,21.288 17.026,21.288 17.026,21.288    17.026,21.288  "/>
	<polygon fill="#FFFFFF" points="53.875,26.58 53.939,26.58 54.129,25.368 54.066,25.368 53.875,26.58 53.875,26.518 53.875,26.58    53.939,26.58 53.939,26.58  "/>
	<polygon fill="#FFFFFF" points="52.536,26.58 52.536,26.58 53.875,26.58 53.875,26.518 52.536,26.518 52.601,26.58  "/>
	<polygon fill="#FFFFFF" points="52.601,25.941 52.536,25.879 52.536,26.006 52.536,26.135 52.536,26.324 52.536,26.58    52.601,26.58 52.601,26.324 52.601,26.135 52.601,26.006 52.601,25.941 52.536,25.879  "/>
	<polygon fill="#FFFFFF" points="50.497,26.645 50.497,26.645 50.688,26.645 50.816,26.708 50.942,26.645 51.135,26.645    51.262,26.645 51.453,26.645 51.58,26.58 51.709,26.518 51.836,26.453 52.025,26.391 52.154,26.324 52.218,26.262 52.346,26.198    52.473,26.135 52.536,26.006 52.601,25.941 52.536,25.879 52.473,26.006 52.41,26.07 52.346,26.135 52.218,26.198 52.091,26.262    51.965,26.324 51.836,26.391 51.709,26.453 51.58,26.518 51.389,26.58 51.262,26.58 51.135,26.58 50.942,26.58 50.816,26.645    50.688,26.58 50.561,26.58 50.561,26.58  "/>
	<polygon fill="#FFFFFF" points="49.223,24.986 49.223,24.986 49.223,25.114 49.223,25.242 49.223,25.368 49.285,25.497    49.285,25.624 49.349,25.752 49.412,25.879 49.476,26.006 49.541,26.07 49.604,26.198 49.73,26.324 49.859,26.391 49.986,26.453    50.179,26.518 50.305,26.58 50.497,26.645 50.561,26.58 50.305,26.518 50.179,26.453 50.05,26.391 49.859,26.324 49.795,26.262    49.668,26.135 49.604,26.07 49.541,25.941 49.476,25.816 49.412,25.752 49.349,25.624 49.349,25.497 49.285,25.368 49.285,25.242    49.285,25.114 49.285,24.986 49.285,24.986  "/>
	<polygon fill="#FFFFFF" points="51.135,22.945 51.135,22.945 50.942,23.011 50.752,23.011 50.624,23.074 50.433,23.137    50.242,23.266 50.115,23.328 49.922,23.457 49.795,23.585 49.668,23.711 49.541,23.902 49.476,24.03 49.412,24.223 49.285,24.412    49.285,24.604 49.223,24.794 49.223,24.986 49.285,24.986 49.285,24.794 49.349,24.604 49.349,24.412 49.476,24.223 49.541,24.094    49.604,23.902 49.73,23.773 49.859,23.648 49.986,23.521 50.115,23.393 50.305,23.328 50.433,23.201 50.624,23.137 50.816,23.074    50.942,23.074 51.135,23.011 51.135,23.011  "/>
	<polygon fill="#FFFFFF" points="52.282,22.818 52.282,22.818 52.218,22.818 52.091,22.818 52.025,22.884 51.965,22.884    51.898,22.884 51.772,22.884 51.709,22.884 51.58,22.884 51.517,22.884 51.453,22.945 51.324,22.945 51.262,22.945 51.198,22.945    51.198,22.945 51.135,22.945 51.135,22.945 51.135,23.011 51.135,23.011 51.198,23.011 51.198,23.011 51.262,23.011 51.324,23.011    51.453,23.011 51.517,22.945 51.58,22.945 51.709,22.945 51.772,22.945 51.898,22.945 51.965,22.945 52.025,22.945 52.091,22.884    52.218,22.884 52.282,22.884 52.282,22.884  "/>
	<polygon fill="#FFFFFF" points="52.982,22.884 52.982,22.884 52.982,22.884 52.918,22.884 52.855,22.884 52.729,22.818    52.665,22.818 52.536,22.818 52.41,22.818 52.282,22.818 52.282,22.884 52.41,22.884 52.536,22.884 52.665,22.945 52.729,22.945    52.855,22.945 52.918,22.945 52.982,22.945 52.982,22.945 53.047,22.884 52.982,22.945 53.047,22.945 53.047,22.884  "/>
	<polygon fill="#FFFFFF" points="53.047,22.564 53.047,22.564 53.047,22.627 52.982,22.755 52.982,22.884 52.982,22.884    53.047,22.884 53.047,22.884 53.047,22.755 53.11,22.627 53.11,22.564 53.11,22.564  "/>
	<polygon fill="#FFFFFF" points="52.41,21.988 52.41,22.054 52.536,22.054 52.601,22.054 52.729,22.117 52.855,22.181    52.918,22.244 52.982,22.309 52.982,22.436 53.047,22.564 53.11,22.564 53.047,22.436 53.047,22.309 52.982,22.181 52.855,22.117    52.792,22.054 52.665,21.988 52.536,21.988 52.41,21.926 52.41,21.926  "/>
	<polygon fill="#FFFFFF" points="50.115,22.244 50.115,22.309 50.179,22.309 50.242,22.244 50.368,22.181 50.497,22.181    50.624,22.181 50.752,22.117 50.879,22.117 51.069,22.054 51.198,22.054 51.389,22.054 51.58,22.054 51.772,21.988 51.898,21.988    52.091,21.988 52.218,21.988 52.41,21.988 52.41,21.926 52.218,21.926 52.091,21.926 51.898,21.926 51.772,21.926 51.58,21.988    51.389,21.988 51.198,21.988 51.069,21.988 50.879,22.054 50.752,22.054 50.624,22.117 50.433,22.117 50.368,22.117 50.242,22.181    50.179,22.244 50.115,22.244 50.179,22.309  "/>
	<polygon fill="#FFFFFF" points="50.497,20.969 50.433,20.969 50.115,22.244 50.179,22.309 50.561,20.969 50.497,21.033    50.497,20.969 50.497,20.969 50.433,20.969  "/>
	<polygon fill="#FFFFFF" points="52.855,20.714 52.855,20.714 52.729,20.714 52.536,20.714 52.346,20.714 52.154,20.714    52.025,20.714 51.836,20.714 51.709,20.714 51.517,20.714 51.389,20.714 51.262,20.777 51.135,20.777 51.006,20.777 50.879,20.842    50.752,20.842 50.624,20.906 50.497,20.969 50.497,21.033 50.624,20.969 50.752,20.906 50.879,20.906 51.006,20.842 51.135,20.842    51.262,20.842 51.389,20.777 51.517,20.777 51.709,20.777 51.836,20.777 52.025,20.777 52.154,20.777 52.346,20.777 52.536,20.777    52.729,20.777 52.855,20.777 52.855,20.777  "/>
	<polygon fill="#FFFFFF" points="54.704,22.501 54.704,22.501 54.768,22.309 54.768,22.117 54.704,21.926 54.641,21.734    54.578,21.543 54.449,21.415 54.322,21.288 54.194,21.161 54.066,21.097 53.875,20.969 53.685,20.906 53.559,20.842 53.366,20.777    53.174,20.714 53.047,20.714 52.855,20.714 52.855,20.777 53.047,20.777 53.174,20.777 53.366,20.842 53.492,20.906 53.685,20.969    53.875,21.033 54.004,21.097 54.129,21.224 54.259,21.352 54.386,21.48 54.515,21.607 54.578,21.734 54.641,21.926 54.704,22.117    54.704,22.309 54.641,22.501 54.641,22.501  "/>
	<polygon fill="#FFFFFF" points="54.129,25.368 54.129,25.368 54.704,22.501 54.641,22.501 54.066,25.368 54.066,25.368  "/>
	<path fill="#3A3A39" d="M54.704,21.926l-0.062-0.191l-0.062-0.191l-0.129-0.127l-0.127-0.127l-0.127-0.127l-0.126-0.127   l-0.191-0.064l-0.189-0.063l-0.192-0.063l-0.189-0.063h-0.129h-0.189h-0.127h-0.191h-0.189h-0.19h-0.19h-0.192h-0.125h-0.129   h-0.126h-0.127h-0.128h-0.126h-0.137h-0.125l-0.128,0.063l-0.128,0.063l-0.126,0.063l-0.383,1.275l0.064-0.062l0.062-0.064   l0.126-0.063l0.129-0.063h0.126h0.127h0.129h0.189h0.19h0.19h0.19h0.191h0.189h0.192h0.191h0.125h0.128l0.126,0.063l0.127,0.063   l0.128,0.064l0.064,0.062l0.063,0.128l0.063,0.127v0.126v0.129v0.128v0.127v0.063l0,0h-0.063h-0.063H52.98h-0.128h-0.126H52.6   h-0.127h-0.255h-0.063h-0.063h-0.064h-0.063h-0.063h-0.125h-0.065h-0.063h-0.063h-0.063h-0.063h-0.063h-0.064l0,0l0,0l-0.382-0.063   l-0.191,0.063l-0.189,0.062l-0.192,0.064l-0.062,0.062l-0.127,0.129l-0.127,0.127l-0.126,0.125l-0.129,0.127l-0.127,0.127   l-0.126,0.127l-0.063,0.192l-0.065,0.189L49.294,24.6l-0.063,0.19v0.188v0.129v0.127v0.125v0.129v0.127l0.063,0.126l0.062,0.128   l0.063,0.125l0.064,0.129l0.064,0.127l0.127,0.127l0.127,0.064l0.126,0.063l0.127,0.062l0.191,0.063l0.19,0.065h0.128h0.125h0.128   h0.127h0.126h0.128l0.381-0.19l0.128-0.063l0.128-0.063l0.126-0.065l0.128-0.062l0.126-0.062l0.128-0.064l0.128-0.064l0.062-0.064   l0.064-0.062v0.062v0.129v0.189v0.191h1.338l0.19-1.212l0.574-2.869v-0.191V22.04v-0.114H54.704z M52.792,24.094v0.127v0.127v0.127   v0.064v0.064v0.062l-0.062,0.063l-0.065,0.063l-0.062,0.065l-0.064,0.062l-0.063,0.062l-0.062,0.063l-0.191,0.128l-0.126,0.064   L51.968,25.3l-0.127,0.063h-0.128h-0.127h-0.19h-0.064h-0.063L51.204,25.3l-0.126-0.062l-0.065-0.064l-0.062-0.128v-0.127V24.73   v-0.062l0.062-0.062l0.065-0.063l0.064-0.065l0.062-0.063l0.064-0.063l0.062-0.063l0.064-0.063l0.063-0.063l0.063-0.063   l0.064-0.064l0.062-0.063h0.064h0.064h0.063h0.062h0.062h0.065h0.064h0.063h0.062h0.063h0.064h0.055h0.062h0.063h0.064h0.062h0.065   h0.063l0,0v0.063v0.066h0.005V24.094z"/>
	<polygon fill="#FFFFFF" points="54.515,26.58 56.043,26.58 56.043,26.58 56.617,23.521 56.617,23.393 56.617,23.266 56.68,23.137    56.744,23.011 56.744,22.884 56.809,22.818 56.936,22.69 56.999,22.564 57.064,22.501 57.191,22.436 57.317,22.309 57.446,22.244    57.637,22.181 57.766,22.181 57.955,22.117 58.211,22.117 58.273,22.117 58.273,22.117 58.338,22.117 58.338,22.117 58.593,20.714    58.402,20.777 58.273,20.777 58.147,20.777 58.019,20.842 57.892,20.842 57.766,20.906 57.637,20.969 57.573,21.033 57.446,21.097    57.382,21.224 57.317,21.288 57.191,21.352 57.129,21.48 57.064,21.543 56.936,21.671 56.872,21.798 57.064,20.777 55.534,20.777     "/>
	<g>
		<g>
			<polyline fill="#3A3A39" points="54.515,26.58 56.043,26.58 56.043,26.58 56.617,23.521 56.617,23.521 56.617,23.393      56.617,23.266 56.68,23.137 56.744,23.011 56.744,22.884 56.809,22.818 56.936,22.69 56.999,22.564 57.064,22.501 57.191,22.436      57.317,22.309 57.446,22.244 57.637,22.181 57.766,22.181 57.955,22.117 58.211,22.117 58.211,22.117 58.273,22.117      58.273,22.117 58.338,22.117 58.338,22.117 58.593,20.714 58.593,20.714 58.402,20.777 58.273,20.777 58.147,20.777      58.019,20.842 57.892,20.842 57.766,20.906 57.637,20.969 57.573,21.033 57.446,21.097 57.382,21.224 57.317,21.288      57.191,21.352 57.129,21.48 57.064,21.543 56.936,21.671 56.872,21.798 57.064,20.777 55.534,20.777 54.515,26.58 54.515,26.58         "/>
		</g>
	</g>
	<polygon fill="#FFFFFF" points="40.297,26.58 41.825,26.58 41.825,26.58 42.336,23.521 42.399,23.393 42.399,23.266 42.399,23.137    42.463,23.074 42.526,22.945 42.592,22.818 42.655,22.755 42.719,22.627 42.781,22.564 42.91,22.501 42.974,22.436 43.101,22.372    43.293,22.309 43.419,22.244 43.611,22.244 43.867,22.244 43.867,22.244 43.867,22.244 43.93,22.244 43.93,22.244 43.93,22.244    43.993,22.244 43.993,22.244 43.993,22.244 43.993,22.244 43.993,22.181 44.057,22.054 44.057,21.926 44.12,21.798 44.12,21.671    44.186,21.543 44.249,21.352 44.312,21.288 44.312,21.161 44.375,21.033 44.439,20.969 44.504,20.906 44.504,20.842 44.567,20.777    44.567,20.777 44.567,20.777 44.567,20.777 44.504,20.777 44.504,20.777 44.439,20.777 44.375,20.714 44.375,20.714 44.312,20.714    44.186,20.777 43.993,20.777 43.867,20.777 43.738,20.842 43.611,20.842 43.483,20.906 43.419,20.969 43.293,21.033 43.229,21.097    43.101,21.161 43.037,21.288 42.974,21.352 42.91,21.48 42.781,21.543 42.719,21.671 42.655,21.798 42.846,20.777 41.316,20.777     "/>
	<g>
		<g>
			<polygon fill="#3A3A39" points="63.885,32.191 63.885,32.191 63.948,32.062 64.014,31.936 64.141,31.809 64.203,31.743      64.396,31.68 64.522,31.617 64.65,31.617 64.777,31.617 64.968,31.68 65.097,31.743 65.16,31.809 65.287,31.936 65.352,32.062      65.415,32.191 65.415,32.191 65.223,32.191 65.223,32.128 65.16,31.999 65.097,31.936 64.968,31.809 64.904,31.743      64.777,31.743 64.65,31.743 64.522,31.743 64.396,31.743 64.331,31.809 64.203,31.936 64.141,31.999 64.077,32.128      64.077,32.191    "/>
			<polygon fill="#3A3A39" points="64.396,32.191 64.396,31.999 64.65,31.999 64.777,31.999 64.777,32.062 64.841,32.062      64.904,32.062 64.904,32.062 64.904,32.128 64.968,32.191 64.968,32.191 64.841,32.191 64.841,32.191 64.841,32.191      64.841,32.128 64.841,32.128 64.777,32.128 64.777,32.128 64.715,32.128 64.715,32.128 64.65,32.128 64.522,32.128      64.522,32.191    "/>
			<polygon fill="#3A3A39" points="63.885,32.316 63.885,32.191 64.077,32.191 64.077,32.191 64.077,32.316    "/>
			<polygon fill="#3A3A39" points="64.396,32.316 64.396,32.191 64.522,32.191 64.522,32.316 64.65,32.316 64.715,32.316      64.715,32.316 64.777,32.316 64.777,32.254 64.841,32.254 64.841,32.254 64.841,32.254 64.841,32.191 64.968,32.191      64.968,32.191 64.968,32.254 64.904,32.254 64.904,32.316 64.904,32.316    "/>
			<polygon fill="#3A3A39" points="65.223,32.316 65.223,32.191 65.223,32.191 65.415,32.191 65.415,32.316    "/>
			<polygon fill="#3A3A39" points="63.885,32.316 63.885,32.316 63.885,32.51 63.948,32.637 64.014,32.766 64.141,32.893      64.203,32.955 64.396,33.02 64.522,33.084 64.65,33.084 64.777,33.084 64.968,33.02 65.097,32.955 65.16,32.893 65.287,32.766      65.352,32.637 65.415,32.51 65.415,32.316 65.415,32.316 65.223,32.316 65.223,32.316 65.223,32.445 65.223,32.573 65.16,32.701      65.097,32.766 64.968,32.893 64.904,32.893 64.777,32.955 64.65,32.955 64.522,32.955 64.396,32.893 64.331,32.893      64.203,32.766 64.141,32.701 64.077,32.573 64.077,32.445 64.077,32.316 64.077,32.316    "/>
			<polygon fill="#3A3A39" points="64.396,32.316 64.396,32.637 64.522,32.637 64.522,32.383 64.65,32.383 64.841,32.637      64.904,32.637 64.777,32.383 64.777,32.383 64.841,32.383 64.841,32.383 64.904,32.316 64.904,32.316    "/>
		</g>
	</g>
	<path fill="#FFFFFF" d="M27.991,21.926l-0.062-0.191l-0.064-0.191l-0.126-0.127l-0.127-0.127l-0.128-0.127l-0.127-0.064   l-0.192-0.062l-0.189-0.064l-0.191-0.063l-0.19-0.063l-0.064-0.063h-0.19H26.21h-0.189h-0.192h-0.189h-0.191h-0.191h-0.189h-0.128   h-0.128h-0.126h-0.128h-0.128h-0.126h-0.127l-0.128,0.063L23.92,20.91l-0.127,0.063l-0.382,1.275l0.062-0.062l0.063-0.064   l0.128-0.063l0.128-0.063h0.125h0.129h0.128h0.191h0.189h0.191h0.191h0.19h0.191h0.189h0.191h0.128h0.128l0.127,0.063l0,0   l0.127,0.063l0.062,0.064l0.064,0.127L26.4,22.44v0.127v0.126v0.129l-0.062,0.128v0.063l0,0h-0.064h-0.062h-0.127h-0.127h-0.128   H25.7h-0.126h-0.062h-0.064h-0.062h-0.069h-0.063h-0.129h-0.062h-0.063h-0.062h-0.063H24.81h-0.064h-0.063h-0.062l0,0l0,0   l-0.189,0.062l-0.192,0.062l-0.19,0.063l-0.191,0.063l-0.191,0.062l-0.126,0.128l-0.128,0.126l-0.128,0.128l-0.126,0.128   l-0.258,0.064l-0.127,0.128l-0.064,0.189l-0.062,0.19l-0.064,0.191l-0.062,0.19v0.19v0.127v0.127v0.127v0.127l0.062,0.127   l0.064,0.127l0.062,0.127l0.064,0.126l0.062,0.129l0.063,0.134l0.126,0.126l0.128,0.065l0.128,0.062l0.126,0.063l0.191,0.063   l0.19,0.064h0.126h0.128h0.128h0.126h0.191l0.128-0.064l0.126-0.063l0.127-0.063l0.128-0.062l0.128-0.065l0.126-0.063l0.127-0.063   l0.128-0.063l0.127-0.062l0.063-0.064l0.062-0.063v0.063v0.127v0.19l-0.062,0.19h1.339l0.191-1.211l0.572-2.869l0.064-0.192v-0.19   L27.991,21.926z M26.143,24.094l-0.063,0.191v0.189l-0.063,0.129v0.062v0.063l-0.063,0.063l-0.062,0.065l-0.063,0.062l-0.062,0.062   L25.7,25.047l-0.062,0.064l-0.064,0.064l-0.062,0.063h-0.127l-0.128,0.062l-0.128,0.063h-0.127h-0.126h-0.19H24.62h-0.062   l-0.063-0.063l-0.126-0.062l-0.063-0.063l-0.063-0.129v-0.126v-0.192V24.67l0.063-0.062l0.063-0.063l0.063-0.065l0.062-0.063   l0.063-0.063l0.062-0.063l0.064-0.062l0.062-0.064l0.064-0.064l0.062-0.062l0.062-0.064h0.062h0.063h0.062h0.064h0.062h0.064h0.062   h0.063h0.063h0.062h0.064h0.062h0.064h0.062h0.063h0.062h0.063h0.063l0,0l0,0L26.143,24.094z"/>
</g>
</svg>