<?xml version="1.0" encoding="utf-8"?>
<!-- Generator: Adobe Illustrator 22.1.0, SVG Export Plug-In . SVG Version: 6.00 Build 0)  -->
<svg version="1.1" id="Layer_1" xmlns="http://www.w3.org/2000/svg" xmlns:xlink="http://www.w3.org/1999/xlink" x="0px" y="0px"
	 viewBox="0 0 512 512" style="enable-background:new 0 0 512 512;" xml:space="preserve">
<path d="M483.2,343.2l-0.2-0.1c-39.4-12.9-53.1-28.1-57.7-38.5l-2.6-5.8l6.4-0.6c22.7-2,39.3-8.3,49.4-18.9l0.1-0.1
	c2.1-2.1,2.9-4.8,2.2-7.1c-0.8-2.5-3-4.7-5.5-5.6c-2.2-0.6-4.9-2.4-7.3-5c-5.3-5.8-11.2-17.9-9-42.3c3.7-39.9-2.2-67.9-17.6-83.3
	l-0.1-0.1c-7.5-8-17.8-12.3-30-12.3h-1.7l-1.3-1.1c-4.7-4-14.8-10.6-30.1-10.6c-7.6,0-15.7,1.6-24.1,4.8l-0.8,0.3h-0.7
	c-12.4,4.6-46.5,18.6-44.6,88.9c0.7,47.3-11.8,57.2-15.6,59.1l-0.7,0.3l-0.7,0.1c-3.3,0.5-5.2,1.6-6.4,4.1c-0.8,1.5-1.7,4.5,0.2,7.6
	c0.1,0.1,0.2,0.3,0.4,0.4c11.6,13.1,32.1,20.6,58.1,21.3l-2.5,5.8c-3.1,7.1-10.4,16.3-26.9,25.5c-29.7-10.9-52.6-26.1-56.8-29
	c-0.9-0.4-1.7-0.9-2.2-1.7c-6.9-4.7-12.9-13.3-16.3-20.1l-1.8-3.5l3.2-2.3c3.8-2.7,7.5-6.2,10.9-10.3l0.1-0.1
	c14.4-16.3,23.6-39.2,27.3-68.2c2.9-22.5,1.3-40.7,1-44.1l0-0.1l0-0.1c-1.6-33.2-13.1-58.3-34.1-74.5c-9.1-7.1-18.8-11.5-27.7-14.2
	c-11.8-3.8-22.2-4.4-27.6-4.4c-0.9,0-1.8,0-2.7,0.1c-0.9,0-1.8-0.1-2.7-0.1c-5.4,0-15.7,0.6-27.6,4.4c-8.9,2.7-18.5,7.1-27.7,14.2
	c-21,16.3-32.4,41.4-34.1,74.5l0,0.1l0,0.1c-0.3,3.4-1.9,21.6,1,44.1c3.7,29,12.9,51.9,27.3,68.2l0.1,0.1c3.5,4.1,7.1,7.6,10.9,10.3
	l3.2,2.3l-1.8,3.5c-3.4,6.8-9.4,15.4-16.3,20.1c-0.6,0.8-1.3,1.3-2.2,1.7c-5.3,3.6-38.5,25.7-78,35.5C11.5,343.3-3,369.9-0.5,409.8
	l0,0.1v0.1c0,23.6,2.3,34.5,4.3,39.5c1.2,3.1,3.7,4.9,6.8,4.9c0.6,0,2.1,0,2.6-0.2l0.1-0.1c3.4-1.5,5.9-5.4,4.1-9.8l-0.1-0.1l0-0.1
	c-2.8-8.5-2.9-33.1-2.9-34.2v-1.2c-1.2-33.7,8.3-53.3,28.4-58.2c38.7-9.5,71-29.5,83.1-37.6l0.6-0.4l0.1,0
	c12.1-7.4,19.3-19.2,22.5-25.6l1.8-3.6l3.8,1.3c10.1,3.4,20.1,5,30.6,5h1h1.6h1c10.5,0,20.5-1.6,30.6-5l3.8-1.3l1.8,3.6
	c3.2,6.4,10.4,18.2,22.5,25.6l0.1,0l0.6,0.4c12.1,8.1,44.4,28.1,83.1,37.6c20,4.9,29.6,24.4,28.4,58.2v1.2c0,1,0,25.7-2.9,34.2
	l0,0.1l-0.1,0.1c-1.8,4.4,0.7,8.3,4.1,9.8l0.1,0.1c0.5,0.2,2,0.2,2.6,0.2c3.1,0,5.7-1.8,6.8-4.9c1.9-5,4.3-15.9,4.3-39.5v-0.1l0-0.1
	c2.5-39.8-12-66.5-39.7-73.1c-0.6-0.2-1.3-0.3-1.9-0.5c26.4-19.6,24.4-40.2,23.2-45.8c0-0.4-0.1-0.8-0.2-1.1v-0.2
	c0-0.1-0.1-0.2-0.1-0.3c-1-3.5-4.3-5.6-7.5-5.6c-1.5,0.1-3,0.1-4.4,0.1c-16.1,0-27.1-3.5-33.5-6.4l-5.5-2.5l3.9-4.6
	c9.9-11.7,14.6-33.3,14-64.3c-0.6-25.2,3.7-44.5,12.8-57.3c7.8-11,17.4-14.8,22.5-16.9l1.1-0.4h0.7c6.3-2.3,12.3-3.5,17.9-3.5
	c12.3,0,19.5,5.4,22.8,8.7l0.2,0.2l0.2,0.2c1.5,1.9,3.5,3,5.4,3c0.3,0,0.5,0,0.8-0.1l0.2,0l0.2,0c1.5-0.1,2.9-0.2,4.2-0.2
	c8.4,0,14.7,2.5,19.2,7.5c11.7,11.8,16.4,37.6,13,70.9c-2.1,23.5,1.9,41.3,12,52.8l4.2,4.9l-6,2.4c-14,5.6-30.6,6.2-37,6.2
	c-3,0-6.2,2.3-7.2,5.2v0.5l-0.1,0.5c-1.6,7.3-5.9,44.8,69.5,67.9c19.9,6.1,18,42,17.6,47.1c0.1,4.4,3.1,7.8,7.4,8.3h0.4
	c4,0,7.4-3.2,7.9-7.6C514.9,361.4,497.9,347.3,483.2,343.2z M187.1,274.7L187.1,274.7h-0.2c-22.3,0-39.3-7.2-51.8-21.8
	c-15.2-17.2-21.2-41.8-23.5-60.4c-1.7-14.4-1.5-27.2-1.2-34.8c0.2-2.8,0.4-4.6,0.6-5.8l0-0.4c1.5-31.1,12.2-53.6,31.9-66.9
	c1.9-1.3,3.9-2.5,5.9-3.5c0.1,0,0.1-0.1,0.2-0.1c0.7-0.4,1.5-0.7,2.2-1.1c0.6-0.3,1.2-0.6,1.8-0.8c0.2-0.1,0.5-0.2,0.7-0.3
	c2.8-1.2,5.7-2.2,8.3-3c0.2-0.1,0.4-0.1,0.6-0.2c0.4-0.1,0.8-0.2,1.3-0.4c0.8-0.2,1.6-0.4,2.3-0.6c0,0,0,0,0,0
	c7.3-1.7,13.7-2.1,18-2.1h2.5h0.7h2.5c4.4,0,10.8,0.4,18,2.1c0,0,0,0,0,0c0.8,0.2,1.5,0.4,2.3,0.6c0.4,0.1,0.8,0.2,1.3,0.4
	c0.2,0.1,0.4,0.1,0.6,0.2c2.7,0.8,5.5,1.8,8.3,3c0.2,0.1,0.5,0.2,0.7,0.3c0.6,0.3,1.2,0.5,1.8,0.8c0.7,0.3,1.5,0.7,2.2,1.1
	c0.1,0,0.1,0.1,0.2,0.1c2,1,3.9,2.2,5.9,3.5c19.7,13.2,30.5,35.7,31.9,66.9l0,0.4c0.2,1.2,0.5,3,0.6,5.8c0.4,7.6,0.5,20.4-1.2,34.8
	c-2.3,18.6-8.3,43.2-23.5,60.4c-12.6,14.7-29.5,21.8-51.8,21.8H187.1z M318.7,331.9c4.6,1.6,9.4,3,14.2,4.3
	C328.1,334.9,323.3,333.5,318.7,331.9z M313.7,330.1c1.4,0.5,2.9,1,4.3,1.5C316.5,331.1,315.1,330.6,313.7,330.1z"/>
</svg>
