<svg xmlns="http://www.w3.org/2000/svg" width="27" height="20">
    <path fill="#373737" fill-rule="evenodd" d="M18.831 19.996c-.103 0-.155-.007-.199-.024-.262-.118-.453-.41-.316-.74.105-.306.133-1.198.133-1.627v-.059c.056-1.567-.369-2.471-1.261-2.689-1.936-.473-3.57-1.475-4.183-1.884-.669-.405-1.049-1.025-1.215-1.358l-.014-.028-.029.01c-.517.173-1.034.258-1.581.258h-.178c-.547 0-1.064-.085-1.579-.258l-.03-.01-.015.029c-.166.332-.542.949-1.187 1.342-.777.514-2.362 1.447-4.21 1.899-.894.217-1.319 1.12-1.262 2.682v.066c0 .012.003 1.235.134 1.63.135.325-.055.62-.304.729-.054.026-.117.032-.212.032-.235 0-.428-.137-.517-.366-.103-.256-.227-.815-.227-2.02-.129-2.065.644-3.457 2.122-3.817 1.834-.453 3.377-1.436 3.806-1.726.052-.026.058-.034.064-.042.353-.251.637-.659.79-.962l.013-.027-.024-.018c-.192-.136-.38-.313-.574-.54-.743-.836-1.215-2.005-1.403-3.474-.127-.979-.087-1.809-.052-2.217.088-1.701.683-2.99 1.766-3.828.426-.327.909-.573 1.436-.733C9.14.03 9.681.001 9.948.001l.139.005c.023-.005.075-.005.129-.005.27 0 .814.029 1.428.226.532.161 1.015.408 1.434.733 1.088.837 1.682 2.123 1.764 3.822.036.409.076 1.244-.051 2.222-.188 1.469-.659 2.637-1.4 3.472-.18.215-.375.399-.578.543l-.023.016.013.026c.154.306.43.708.745.922.05.054.06.059.08.068.307.205 1.377.893 2.721 1.396.753-.434 1.054-.851 1.174-1.125l.014-.031c-1.206-.081-2.176-.471-2.739-1.103-.197-.3-.092-.546-.055-.614.081-.17.227-.267.458-.302l.009-.001c.122-.075.703-.542.67-2.745-.099-3.673 1.736-4.352 2.339-4.574l.095-.012c.401-.163.836-.252 1.242-.252.822 0 1.366.357 1.617.569.678.009 1.241.24 1.653.677.805.801 1.118 2.238.929 4.269-.103 1.135.159 1.683.397 1.942.088.096.195.171.271.192.193.068.347.222.405.402.056.185-.004.393-.156.546-.533.556-1.4.891-2.576.994l-.047.004.018.042c.215.482.865 1.184 2.746 1.798.794.222 1.721.974 1.615 3.288-.035.321-.286.56-.584.56-.341-.036-.572-.276-.58-.598.015-.199.119-1.887-.736-2.148-3.896-1.189-3.665-3.19-3.579-3.579l.006-.045c.079-.24.312-.412.545-.412.309 0 1.1-.029 1.763-.292l.047-.019-.032-.039c-.535-.606-.751-1.531-.641-2.75.162-1.589-.052-2.81-.59-3.35-.192-.212-.457-.314-.815-.314-.055 0-.114.004-.177.009-.046.006-.069.006-.09.006h-.001c-.155 0-.307-.08-.419-.221-.171-.169-.489-.377-1-.377-.251 0-.527.055-.821.162l-.095.011c-.277.125-.684.303-1.02.774-.426.598-.628 1.511-.598 2.715.029 1.579-.22 2.691-.741 3.304l-.028.034.04.018c.302.137.821.299 1.582.299h.004c.069 0 .136 0 .202-.004.267 0 .499.171.57.415l.006.033c.016.029.016.071.016.099.061.259.17 1.207-.933 2.179 1.296.448 1.967 1.8 1.845 3.732.001 1.173-.122 1.744-.225 2.016-.08.226-.279.367-.518.367zM8.211 1.557c-.068.042-.144.088-.217.138-.923.62-1.427 1.682-1.499 3.155-.01.092-.02.178-.03.311-.023.593-.003 1.16.059 1.683.107.858.387 2.054 1.118 2.879.586.681 1.379 1.012 2.425 1.012 1.056 0 1.852-.331 2.437-1.01.733-.826 1.015-2.023 1.122-2.882.088-.748.074-1.377.058-1.686-.005-.129-.018-.21-.028-.264-.068-1.506-.573-2.579-1.5-3.197-.09-.059-.178-.114-.271-.161-.046-.025-.079-.042-.109-.055l-.093-.041c-.162-.069-.293-.116-.42-.153l-.049-.017c-.018-.006-.153-.04-.153-.04-.344-.081-.649-.098-.845-.098h-.283c-.192 0-.496.017-.848.098l-.095.025c-.03.011-.056.018-.081.024-.142.045-.28.091-.412.148l-.041.018c-.03.01-.051.021-.072.031l-.105.052-.021.022-.037.012-.004-.007-.006.003z"/>
</svg>
