<svg xmlns="http://www.w3.org/2000/svg" width="32" height="32">
    <path fill="#373737" fill-rule="evenodd" d="M30.934 28.801V25.6h-6.4v3.201h-1.067V20.8c0-.295.239-.534.533-.534h7.467c.295 0 .534.239.534.534V28.801h-1.067zm0-7.468h-6.4v3.201h6.4v-3.201zm-2.133 2.134h-2.134V22.4h2.134v1.067zm-3.2-6.934a.534.534 0 01-.507-.702l1.067-3.201a.532.532 0 01.506-.364h2.134c.23 0 .433.146.506.364l1.067 3.2a.539.539 0 01-.074.481.53.53 0 01-.433.222h-1.6v1.6h1.067V19.2h-3.2v-1.067h1.067v-1.6h-1.6zm3.527-1.067l-.711-2.134h-1.365l-.712 2.134h2.788zm1.806-7.655L16 1.116 1.066 7.81v6.056H-.001V7.465c0-.21.123-.4.315-.487L15.782.044a.534.534 0 01.436 0l15.468 6.934a.535.535 0 01.315.487v6.401h-1.067V7.811zM20.111 5.175l-3.734 3.734a.532.532 0 01-.754 0l-1.067-1.067.754-.754.69.69 3.356-3.357.755.754zm-.429 2.202A3.737 3.737 0 0116 11.732a3.738 3.738 0 01-3.734-3.733 3.738 3.738 0 014.979-3.521l-.355 1.006a2.67 2.67 0 00-3.557 2.515A2.67 2.67 0 0016 10.665a2.67 2.67 0 002.629-3.111l1.053-.177zM2.133 20.32v-4.854c0-.882.718-1.6 1.6-1.6h14.934c.882 0 1.6.718 1.6 1.6v4.854a2.672 2.672 0 012.133 2.613v8.535a.533.533 0 01-.533.533h-2.134a.533.533 0 01-.533-.533v-1.601H3.199v1.601a.533.533 0 01-.533.533H.533a.534.534 0 01-.534-.533v-8.535c0-1.287.918-2.365 2.134-2.613zM19.2 15.466a.533.533 0 00-.533-.533H3.733a.534.534 0 00-.534.533v4.8h1.067v-2.133c0-.882.718-1.6 1.6-1.6h3.2c.882 0 1.6.718 1.6 1.6v2.133h1.067v-2.133c0-.882.718-1.6 1.6-1.6h3.2c.882 0 1.6.718 1.6 1.6v2.133H19.2v-4.8zM5.333 18.133v2.133H9.6v-2.133a.534.534 0 00-.534-.533h-3.2a.533.533 0 00-.533.533zm7.467 0v2.133h4.267v-2.133a.534.534 0 00-.534-.533h-3.2a.533.533 0 00-.533.533zM1.066 30.934h1.067v-1.6c0-.294.239-.533.533-.533h17.067c.295 0 .534.239.534.533v1.6h1.067v-4.267H1.066v4.267zm0-5.334h20.268v-2.667c0-.882-.718-1.6-1.601-1.6H2.666c-.882 0-1.6.718-1.6 1.6V25.6z"/>
</svg>
