<?xml version="1.0" encoding="UTF-8"?>
<!-- Generator: Adobe Illustrator 15.1.0, SVG Export Plug-In . SVG Version: 6.00 Build 0)  -->
<!DOCTYPE svg PUBLIC "-//W3C//DTD SVG 1.1//EN" "http://www.w3.org/Graphics/SVG/1.1/DTD/svg11.dtd">
<svg version="1.1" id="Layer_1" xmlns="http://www.w3.org/2000/svg" xmlns:xlink="http://www.w3.org/1999/xlink" x="0px" y="0px" width="79px" height="45px" viewBox="0 0 79 45" enable-background="new 0 0 79 45" xml:space="preserve">
<path fill="#3A3A39" d="M74.207,44.999H4.793C2.148,44.999,0,42.85,0,40.204V4.794C0,2.149,2.148,0,4.793,0h69.412  C76.852,0,79,2.149,79,4.794v35.412C79,42.85,76.852,44.999,74.207,44.999z M4.793,3C3.819,3,3,3.82,3,4.794v35.412  c0,0.974,0.819,1.793,1.793,1.793h69.412c0.973,0,1.795-0.819,1.795-1.793V4.794C76,3.82,75.178,3,74.205,3H4.793z"/>
<g>
	<polygon fill="#3A3A39" points="32.612,29.45 34.972,15.486 38.733,15.486 36.375,29.45  "/>
	<path fill="#3A3A39" d="M50.145,15.869c-0.764-0.256-1.911-0.575-3.378-0.575c-3.761,0-6.374,1.913-6.438,4.591   c0,1.977,1.912,3.125,3.315,3.762c1.466,0.701,1.976,1.148,1.976,1.724c0,0.957-1.148,1.339-2.294,1.339   c-1.53,0-2.297-0.191-3.571-0.701l-0.511-0.191l-0.509,3.125c0.893,0.382,2.55,0.699,4.207,0.766c4.016,0,6.564-1.85,6.629-4.781   c0-1.594-1.021-2.805-3.188-3.762c-1.338-0.637-2.167-1.083-2.103-1.722c0-0.573,0.701-1.211,2.168-1.211   c1.212,0,2.168,0.255,2.87,0.51l0.319,0.191L50.145,15.869"/>
	<path fill="#3A3A39" d="M59.836,15.551h-2.932c-0.894,0-1.596,0.254-1.977,1.146l-5.61,12.753h3.951c0,0,0.638-1.724,0.829-2.104   c0.445,0,4.334,0,4.846,0c0.127,0.512,0.444,2.104,0.444,2.104h3.509L59.836,15.551 M55.182,24.477c0.32-0.83,1.53-3.89,1.53-3.89   c0,0.063,0.319-0.828,0.511-1.34l0.256,1.212c0,0,0.701,3.316,0.892,4.018H55.182z"/>
	<path fill="#3A3A39" d="M29.426,15.551l-3.697,9.5l-0.385-1.915c-0.701-2.23-2.869-4.652-5.227-5.865l3.379,12.18h4.017   l5.993-13.899L29.426,15.551"/>
	<path fill="#3A3A39" d="M22.285,15.486h-6.12l-0.064,0.319c4.78,1.147,7.905,3.953,9.245,7.267l-1.34-6.373   C23.752,15.806,23.05,15.551,22.285,15.486"/>
</g>
</svg>