<svg version="1.1" id="Layer_1" xmlns="http://www.w3.org/2000/svg" xmlns:xlink="http://www.w3.org/1999/xlink" x="0px" y="0px" viewBox="0 0 48 48" enable-background="new 0 0 48 48" xml:space="preserve" focusable="false" aria-hidden="true" role="none" class="room-accomodation-svg-inject Icon-img ng-isolate-scope  replaced-svg" data-url="/assets/hotel/default/media/iconography/icon/fireplace.svg">
<g>
	<path fill="#010101" d="M47,48H1c-0.6,0-1-0.4-1-1V1c0-0.6,0.4-1,1-1h46c0.6,0,1,0.4,1,1v46C48,47.6,47.6,48,47,48z M2,46h44V2H2&#10;&#9;&#9;V46z"/>
	<path fill="#010101" d="M40,48H8c-0.6,0-1-0.4-1-1V27.5c0-9.4,7.6-17,17-17s17,7.6,17,17V47C41,47.6,40.6,48,40,48z M9,46h30V27.5&#10;&#9;&#9;c0-8.3-6.7-15-15-15c-8.3,0-15,6.7-15,15V46z"/>
	<path fill="#010101" d="M28.7,43.5c-0.4,0-0.7-0.2-0.9-0.5c-0.3-0.5-0.1-1.1,0.4-1.4c2.4-1.4,3.8-3.1,4.4-5.6c0.5-2,0.3-4.1-0.3-6&#10;&#9;&#9;c-0.3,0.3-0.6,0.6-1.1,0.8c-0.3,0.1-0.7,0-0.9-0.2c-0.3-0.2-0.4-0.5-0.4-0.8c0.1-1.1,0-2.3-0.2-3.3c0,0,0,0-0.1,0.1&#10;&#9;&#9;c-0.2,0.2-0.4,0.4-0.5,0.5c0,0,0,0.2-0.1,0.3c-0.2,0.7-0.5,1.7-1.6,1.9c-0.3,0-0.6,0-0.8-0.2c-0.2-0.2-0.3-0.5-0.3-0.8&#10;&#9;&#9;c0.1-2-0.6-4.1-1.8-5.9c-0.7-0.9-1.5-1.6-2.4-2.2c0.2,0.6,0.3,1.2,0.4,1.8c0.2,1.6-0.3,3.4-1.4,4.6c-0.1,0.1-0.4,0.4-0.4,0.5&#10;&#9;&#9;c0,0.1,0,0.2,0,0.5l0.3,4.7c0,0.4-0.2,0.9-0.7,1c-0.4,0.1-0.9,0-1.1-0.4c-0.7-1-1.3-1.9-2.1-2.5c-0.2-0.2-0.5-0.3-0.8-0.4&#10;&#9;&#9;c0.5,1.1,0.6,2.4,0.8,3.5l0.1,0.6c0.2,1.4,0.3,2.8,0.9,3.9c0.4,0.7,0.9,1.3,1.6,1.9l0.3,0.3c0.4,0.4,0.8,0.8,1.1,0.8&#10;&#9;&#9;c0.5,0.1,0.9,0.6,0.8,1.2c-0.1,0.5-0.6,0.9-1.2,0.8c-0.9-0.2-1.6-0.8-2.1-1.4l-0.3-0.3c-0.7-0.7-1.4-1.4-2-2.4&#10;&#9;&#9;c-0.8-1.5-1-3.1-1.1-4.6L15,33.7c-0.2-1.5-0.4-3.2-1.3-4.1c-0.2-0.3-0.3-0.6-0.2-1s0.4-0.6,0.7-0.7c1.4-0.4,2.9,0,4.1,0.9&#10;&#9;&#9;c0.2,0.1,0.3,0.3,0.5,0.4l-0.1-1.7c0-0.4,0-0.7,0.1-1.2c0.2-0.5,0.6-0.9,0.8-1.2c0.7-0.7,1-1.9,0.8-3.1c-0.1-1.1-0.5-2.3-1.3-3.4&#10;&#9;&#9;c-0.2-0.3-0.3-0.8,0-1.1c0.2-0.3,0.7-0.5,1.1-0.4c2.3,0.5,4.4,1.9,6,4c0.9,1.3,1.6,2.7,1.9,4.1c0.1-0.1,0.2-0.2,0.3-0.3&#10;&#9;&#9;c0.1-0.1,0.2-0.2,0.3-0.3c0.2-0.2,0.4-0.4,0.4-0.5c-0.1-0.5,0.2-1,0.7-1.1c0.5-0.1,1,0.1,1.2,0.6c0.4,1,0.6,2,0.8,3&#10;&#9;&#9;c0.1-0.1,0.3-0.1,0.4-0.2c0.4-0.1,0.8,0.1,1,0.5c1.7,2.8,2.2,6.2,1.4,9.4c-0.7,3-2.5,5.2-5.4,6.8C29,43.5,28.9,43.5,28.7,43.5z"/>
</g>
</svg>