<svg xmlns="http://www.w3.org/2000/svg" width="30" height="20">
    <path fill="#8798AF" fill-rule="evenodd" d="M28.712 20.01H1.314a1.312 1.312 0 01-1.301-1.319V1.311c0-.728.584-1.32 1.301-1.32h27.398c.718 0 1.302.592 1.302 1.32v17.38c0 .727-.584 1.319-1.302 1.319zM1.148 18.691c0 .092.075.168.166.168h1.002a1.714 1.714 0 00-1.168-1.101v.933zm.166-17.548a.168.168 0 00-.166.168v.934c.563-.168.985-.563 1.167-1.102H1.314zm27.564.168a.168.168 0 00-.167-.168H27.71c.183.539.604.935 1.168 1.102v-.934zm0 2.136c-1.203-.22-2.13-1.124-2.36-2.304H3.507c-.231 1.18-2.361 2.304-2.361 2.304v13.109c1.204.22 2.131 1.124 2.361 2.303H26.52c.229-1.179 1.156-2.083 2.358-2.301V3.447zm.002 14.311c-.564.167-.987.562-1.168 1.101h1a.171.171 0 00.168-.168v-.933zm-13.867-.094c-4.167 0-7.557-3.439-7.557-7.663s3.39-7.662 7.557-7.662c4.166 0 7.558 3.438 7.558 7.662s-3.392 7.663-7.558 7.663zm0-14.174c-3.54 0-6.421 2.92-6.421 6.511s2.881 6.512 6.421 6.512c3.542 0 6.422-2.921 6.422-6.512 0-3.591-2.88-6.511-6.422-6.511zm2.347 9.549a1.96 1.96 0 01-.646-.257 1.46 1.46 0 01-.465-.476c-.122-.197-.188-.444-.2-.741h1.143a.653.653 0 00.286.571.869.869 0 00.292.134 1.343 1.343 0 00.609.013.867.867 0 00.254-.095.567.567 0 00.19-.171.46.46 0 00.077-.27c0-.182-.121-.32-.359-.413a7.139 7.139 0 00-1.002-.274 6.024 6.024 0 01-.512-.142 1.689 1.689 0 01-.443-.215 1.033 1.033 0 01-.314-.334.97.97 0 01-.119-.493c0-.286.056-.521.166-.703.111-.183.255-.328.435-.433.182-.106.384-.18.61-.223a3.684 3.684 0 011.382.005c.222.046.421.122.596.231.175.108.321.253.436.433.114.179.184.408.207.681H18.84c-.017-.234-.105-.392-.262-.476a1.197 1.197 0 00-.559-.125c-.068 0-.14.005-.219.013a.744.744 0 00-.216.056.461.461 0 00-.165.124.33.33 0 00-.069.218c0 .11.04.197.12.266a.886.886 0 00.307.168c.128.044.272.082.437.115.163.035.328.072.499.111.174.04.345.089.511.147.166.057.315.132.444.227.13.095.234.211.313.352.078.139.119.313.119.519 0 .291-.058.536-.173.733a1.394 1.394 0 01-.452.476 1.86 1.86 0 01-.639.253c-.24.048-.483.073-.732.073-.255 0-.501-.026-.744-.078zm-3.34-.726a9.908 9.908 0 00-.077-.771c-.045-.321-.142-.555-.288-.703-.146-.15-.385-.223-.718-.223h-1.328v2.393H10.28V6.886l3.256-.003c.271 0 .515.045.732.132.216.09.402.21.558.365.155.154.274.334.356.537.081.202.122.421.122.655 0 .361-.074.673-.224.934-.149.263-.393.463-.732.601v.017c.163.046.299.115.407.21.106.095.194.206.262.335.068.129.117.27.148.426.031.153.052.309.064.462l.017.344c.005.132.015.266.029.404.014.136.037.267.068.389a.95.95 0 00.139.314h-1.326a2.386 2.386 0 01-.136-.695zm-.271-4.181c-.152-.133-.381-.201-.685-.201h-1.455v1.725l1.455-.002c.304 0 .533-.069.685-.205.151-.137.228-.361.228-.668 0-.298-.077-.514-.228-.649z"/>
</svg>
