<svg xmlns="http://www.w3.org/2000/svg" width="21" height="21">
    <path fill="#373737" fill-rule="evenodd" d="M20.491 20.965H1.319a.426.426 0 01-.425-.425V1.369a.424.424 0 01.726-.3l19.144 19.146a.426.426 0 01-.273.75zm-2.069-1.891l-.297.296a.423.423 0 01-.601 0 .426.426 0 010-.6l.297-.297-.942-.942-.808.808a.42.42 0 01-.6.002.427.427 0 01-.001-.602l.808-.809-.863-.863-.297.296a.42.42 0 01-.301.124.422.422 0 01-.424-.425c0-.113.044-.22.125-.3l.296-.296-.941-.941-.809.807a.43.43 0 01-.601 0 .427.427 0 010-.601l.808-.808-.863-.863-.296.296a.43.43 0 01-.601 0 .42.42 0 01-.125-.301c0-.113.044-.22.125-.3l.296-.296-.941-.942-.808.808a.423.423 0 01-.601 0 .426.426 0 01-.001-.601l.808-.808-.863-.864-.298.297a.417.417 0 01-.299.123.42.42 0 01-.3-.123.42.42 0 010-.602l.296-.296-.941-.941-.808.808a.42.42 0 01-.3.124.424.424 0 01-.301-.725l.807-.808-.864-.865-.297.298a.424.424 0 11-.601-.602l.298-.296-.941-.941-.808.808a.423.423 0 01-.301.123.424.424 0 01-.3-.725l.808-.807-.865-.865-.296.296a.42.42 0 01-.3.125.422.422 0 01-.302-.725l.298-.296-1.042-1.042v17.72h17.718l-1.04-1.041zM4.945 10.123a.422.422 0 01.463.092l6.21 6.21a.424.424 0 01-.273.75H5.108a.425.425 0 01-.425-.425v-6.234c0-.173.103-.327.262-.393zm.588 6.203h4.784l-4.784-4.785v4.785z"/>
</svg>
